<?xml version="1.0"?>
<svg xmlns:lc="http://www.librecad.org" xmlns="http://www.w3.org/2000/svg" width="100.27066361mm" height="114mm"
     viewBox="0 0 100.27066361 114">
    <g lc:layername="0" lc:is_locked="false" lc:is_construction="false" fill="none" stroke="black" stroke-width="1">
        <line x1="48.6353318" y1="114" x2="51.6353318" y2="114"/>
        <line x1="48.6353318" y1="0" x2="51.6353318" y2="0"/>
        <line x1="0" y1="29.78615528" x2="1.54376758" y2="27.21384472"/>
        <line x1="100.27066361" y1="29.78615528" x2="98.72689603" y2="27.21384472"/>
        <line x1="85.1271312" y1="38.76624785" x2="100.27066361" y2="29.78615528"/>
        <line x1="83.58410952" y1="36.19349496" x2="98.72689603" y2="27.21384472"/>
        <line x1="51.6353318" y1="0" x2="51.6353318" y2="18"/>
        <line x1="48.6353318" y1="18" x2="48.6353318" y2="0"/>
        <line x1="48.6353318" y1="114" x2="48.6353318" y2="96"/>
        <line x1="51.6353318" y1="114" x2="51.6353318" y2="96"/>
        <line x1="56.99431565" y1="38" x2="51.6353318" y2="18"/>
        <line x1="48.6353318" y1="18" x2="43.27634796" y2="38"/>
        <line x1="77.38139581" y1="38" x2="83.58410952" y2="36.19349496"/>
        <line x1="85.1271312" y1="38.76624785" x2="82.6353318" y2="41.31701623"/>
        <line x1="15.14353241" y1="38.76624785" x2="0" y2="29.78615528"/>
        <line x1="16.68655409" y1="36.19349496" x2="1.54376758" y2="27.21384472"/>
        <line x1="22.8892678" y1="38" x2="16.68655409" y2="36.19349496"/>
        <line x1="15.14353241" y1="38.76624785" x2="17.6353318" y2="41.31701623"/>
        <line x1="100.27066361" y1="84.21384472" x2="98.72689603" y2="86.78615528"/>
        <line x1="85.1271312" y1="75.23375215" x2="100.27066361" y2="84.21384472"/>
        <line x1="83.58410952" y1="77.80650504" x2="98.72689603" y2="86.78615528"/>
        <line x1="77.38139581" y1="76" x2="83.58410952" y2="77.80650504"/>
        <line x1="85.1271312" y1="75.23375215" x2="82.6353318" y2="72.68298377"/>
        <line x1="0" y1="84.21384472" x2="1.54376758" y2="86.78615528"/>
        <line x1="15.14353241" y1="75.23375215" x2="0" y2="84.21384472"/>
        <line x1="16.68655409" y1="77.80650504" x2="1.54376758" y2="86.78615528"/>
        <line x1="15.14353241" y1="75.23375215" x2="17.6353318" y2="72.68298377"/>
        <line x1="22.8892678" y1="76" x2="16.68655409" y2="77.80650504"/>
        <line x1="17.6353318" y1="41.31701623" x2="17.6353318" y2="72.68298377"/>
        <line x1="82.6353318" y1="72.68298377" x2="82.6353318" y2="41.31701623"/>
        <line x1="77.38139581" y1="38" x2="56.99431565" y2="38"/>
        <line x1="22.8892678" y1="38" x2="43.27634796" y2="38"/>
        <line x1="56.99431565" y1="76" x2="51.6353318" y2="96"/>
        <line x1="48.6353318" y1="96" x2="43.27634796" y2="76"/>
        <line x1="43.27634796" y1="76" x2="22.8892678" y2="76"/>
        <line x1="56.99431565" y1="76" x2="77.38139581" y2="76"/>
    </g>
</svg>
